<svg xmlns="http://www.w3.org/2000/svg" viewBox="0 0 352 512">
<path d="M170.081,180l76.034-76.033c3.839-3.839,6.131-9.28,6.131-14.555c0-5.432-2.178-10.601-6.131-14.554l-10.891-10.891
	c-3.841-3.837-9.281-6.128-14.553-6.128c-5.271,0-10.71,2.291-14.554,6.132L104.643,165.445c-3.839,3.84-6.132,9.281-6.132,14.555
	c0,5.276,2.293,10.719,6.132,14.554l101.478,101.48c3.841,3.837,9.28,6.128,14.551,6.128c5.271,0,10.712-2.291,14.556-6.132
	l10.888-10.888c3.839-3.839,6.131-9.28,6.131-14.555s-2.292-10.716-6.131-14.555L170.081,180z"/>
</svg>
