<?xml version="1.0" encoding="utf-8"?>
<!-- Generator: Adobe Illustrator 15.0.0, SVG Export Plug-In . SVG Version: 6.00 Build 0)  -->
<!DOCTYPE svg PUBLIC "-//W3C//DTD SVG 1.1//EN" "http://www.w3.org/Graphics/SVG/1.1/DTD/svg11.dtd">
<svg version="1.1" id="Layer_1" xmlns="http://www.w3.org/2000/svg" xmlns:xlink="http://www.w3.org/1999/xlink" x="0px" y="0px"
	 width="312.93px" height="69.715px" viewBox="0 0 312.93 69.715" enable-background="new 0 0 312.93 69.715" xml:space="preserve">
<g>
	<g>
		<path fill="#FFFFFF" d="M32.704,35.767V16.921h-4.422v-2.737h4.422V6.23C18.316,7.098,6.638,18.01,4.595,32.05
			c14.339,2.262,16.551,9.318,28.25,9.318c0,0-7.329-1.349-10.244-3.806C26.643,37.562,29.865,36.803,32.704,35.767z M35.438,6.187
			v7.998h4.422v2.737h-4.422V34.65c4.797-2.136,8.792-4.665,14.59-4.665c7.267,0,11.396,6.273,14.794,7
			c0.002-0.178,0.004-0.355,0.004-0.536C64.828,20.024,51.749,6.657,35.438,6.187z"/>
	</g>
</g>
<g>
	<g>
		<path fill="#FFFFFF" d="M54.078,57.229h-39.01c-0.527,0-0.954,0.427-0.954,0.954s0.427,0.954,0.954,0.954h39.01
			c0.525,0,0.954-0.427,0.954-0.954S54.603,57.229,54.078,57.229z M44.026,63.26H25.132c-0.527,0-0.954,0.427-0.954,0.955
			c0,0.527,0.427,0.954,0.954,0.954h18.895c0.527,0,0.954-0.427,0.954-0.954C44.98,63.688,44.553,63.26,44.026,63.26z
			 M59.148,51.199H9.952C9.427,51.199,9,51.626,9,52.153s0.427,0.954,0.952,0.954h49.196c0.529,0,0.957-0.427,0.957-0.954
			S59.677,51.199,59.148,51.199z M62.061,45.167H7.093c-0.527,0-0.954,0.427-0.954,0.954c0,0.527,0.427,0.955,0.954,0.955h54.967
			c0.527,0,0.954-0.427,0.954-0.955C63.015,45.595,62.587,45.167,62.061,45.167z"/>
	</g>
</g>
<g>
	<path fill="#FFFFFF" d="M87.719,41.398l-4.69-7.009h-3.787v7.009h-4.816V19.502h10.01c2.607,0,4.632,0.637,6.083,1.908
		c1.449,1.273,2.173,3.045,2.173,5.32v0.061c0,1.771-0.431,3.216-1.296,4.331c-0.868,1.117-1.995,1.935-3.394,2.455l5.348,7.822
		H87.719z M87.814,26.977c0-1.041-0.334-1.824-1.002-2.344c-0.666-0.523-1.594-0.781-2.782-0.781h-4.789v6.285h4.882
		c1.188,0,2.099-0.282,2.734-0.844c0.638-0.564,0.957-1.314,0.957-2.253V26.977z"/>
	<path fill="#FFFFFF" d="M118.463,34.845c-0.583,1.364-1.39,2.563-2.422,3.596s-2.264,1.845-3.691,2.439
		c-1.429,0.594-2.986,0.894-4.675,0.894c-1.689,0-3.242-0.299-4.661-0.894c-1.418-0.594-2.644-1.396-3.676-2.407
		c-1.03-1.013-1.834-2.199-2.407-3.565c-0.575-1.366-0.861-2.833-0.861-4.396v-0.063c0-1.563,0.293-3.029,0.876-4.394
		c0.583-1.366,1.39-2.565,2.425-3.598c1.03-1.03,2.262-1.843,3.688-2.438c1.429-0.594,2.989-0.894,4.678-0.894
		c1.689,0,3.24,0.299,4.661,0.894c1.416,0.594,2.644,1.396,3.673,2.407c1.033,1.011,1.835,2.199,2.41,3.565
		c0.572,1.366,0.859,2.83,0.859,4.394v0.062C119.34,32.013,119.047,33.479,118.463,34.845z M114.304,30.449
		c0-0.937-0.161-1.824-0.484-2.656c-0.323-0.835-0.78-1.563-1.377-2.19c-0.594-0.625-1.297-1.121-2.112-1.485
		c-0.811-0.364-1.698-0.549-2.656-0.549c-0.98,0-1.874,0.18-2.674,0.534c-0.804,0.354-1.492,0.843-2.064,1.468
		c-0.575,0.627-1.023,1.351-1.347,2.175c-0.321,0.824-0.483,1.705-0.483,2.642v0.062c0,0.937,0.163,1.826,0.483,2.659
		c0.323,0.835,0.783,1.564,1.377,2.19c0.594,0.625,1.292,1.119,2.097,1.486c0.8,0.364,1.694,0.546,2.674,0.546
		c0.959,0,1.846-0.176,2.657-0.531c0.813-0.354,1.507-0.844,2.082-1.471c0.572-0.625,1.021-1.349,1.344-2.173
		c0.323-0.824,0.484-1.705,0.484-2.644V30.449z"/>
	<path fill="#FFFFFF" d="M123.625,41.398V19.502h4.816v17.546h10.917v4.351H123.625z"/>
	<path fill="#FFFFFF" d="M142.986,41.398V19.502h4.814v17.546h10.917v4.351H142.986z"/>
	<path fill="#FFFFFF" d="M162.565,41.398V19.502h4.816v21.896H162.565z"/>
	<path fill="#FFFFFF" d="M188.211,41.398l-10.6-13.92v13.92h-4.756V19.502h4.441l10.26,13.482V19.502h4.753v21.896H188.211z"/>
	<path fill="#FFFFFF" d="M213.437,40.756c-1.553,0.677-3.331,1.017-5.333,1.017c-1.708,0-3.266-0.282-4.675-0.846
		c-1.408-0.564-2.618-1.345-3.628-2.347c-1.014-1.001-1.798-2.19-2.362-3.565c-0.563-1.377-0.844-2.878-0.844-4.504v-0.063
		c0-1.563,0.287-3.029,0.859-4.394c0.574-1.366,1.37-2.565,2.394-3.598c1.021-1.03,2.229-1.843,3.629-2.438
		c1.396-0.594,2.927-0.894,4.595-0.894c0.982,0,1.874,0.069,2.674,0.204c0.805,0.136,1.551,0.327,2.238,0.579
		c0.688,0.249,1.334,0.562,1.938,0.939c0.605,0.375,1.188,0.802,1.753,1.281l-3.032,3.659c-0.419-0.354-0.835-0.666-1.253-0.937
		c-0.417-0.271-0.851-0.501-1.297-0.688c-0.451-0.188-0.933-0.334-1.456-0.438c-0.522-0.104-1.095-0.158-1.722-0.158
		c-0.876,0-1.693,0.185-2.452,0.549c-0.762,0.366-1.43,0.858-2.002,1.475c-0.574,0.616-1.021,1.338-1.347,2.162
		c-0.323,0.826-0.485,1.711-0.485,2.65v0.063c0,1.002,0.162,1.926,0.485,2.773c0.325,0.846,0.783,1.583,1.377,2.21
		c0.595,0.627,1.293,1.113,2.097,1.458c0.801,0.345,1.692,0.518,2.672,0.518c1.794,0,3.306-0.442,4.535-1.325v-3.149h-4.847v-4.16
		h9.509v9.507C216.332,39.26,214.991,40.078,213.437,40.756z"/>
	<path fill="#FFFFFF" d="M238.35,41.398v-10.26h-14.012v10.26h-1.626V19.502h1.626v10.167h14.012V19.502h1.624v21.896H238.35z"/>
	<path fill="#FFFFFF" d="M246.701,41.398V19.502h1.624v21.896H246.701z"/>
	<path fill="#FFFFFF" d="M255.053,41.398V19.502h1.624v20.424h12.855v1.473H255.053z"/>
	<path fill="#FFFFFF" d="M274.412,41.398V19.502h1.626v20.424h12.855v1.473H274.412z"/>
	<path fill="#FFFFFF" d="M307.893,38.161c-0.364,0.739-0.865,1.371-1.502,1.891c-0.636,0.521-1.397,0.928-2.284,1.221
		c-0.885,0.291-1.858,0.438-2.921,0.438c-1.752,0-3.333-0.292-4.738-0.876c-1.41-0.583-2.771-1.459-4.084-2.628l1.062-1.219
		c0.605,0.562,1.206,1.047,1.801,1.453c0.594,0.408,1.203,0.742,1.83,1.002c0.624,0.26,1.281,0.459,1.969,0.594
		c0.688,0.134,1.44,0.204,2.251,0.204c0.813,0,1.566-0.11,2.253-0.33c0.688-0.219,1.271-0.521,1.751-0.907
		c0.479-0.386,0.856-0.843,1.127-1.377c0.271-0.529,0.408-1.11,0.408-1.735v-0.063c0-0.583-0.092-1.106-0.267-1.565
		c-0.178-0.458-0.501-0.874-0.97-1.249c-0.471-0.375-1.102-0.714-1.894-1.015c-0.791-0.304-1.812-0.581-3.063-0.831
		c-1.314-0.271-2.44-0.588-3.379-0.954c-0.939-0.364-1.705-0.792-2.299-1.282c-0.595-0.49-1.028-1.058-1.297-1.705
		c-0.273-0.646-0.41-1.388-0.41-2.221v-0.063c0-0.813,0.18-1.57,0.533-2.268c0.356-0.698,0.844-1.308,1.471-1.828
		c0.625-0.523,1.364-0.928,2.221-1.221c0.854-0.292,1.794-0.438,2.814-0.438c1.584,0,2.954,0.219,4.114,0.657
		c1.156,0.438,2.288,1.106,3.392,2.001l-1.03,1.284c-1.043-0.897-2.093-1.533-3.145-1.908s-2.186-0.564-3.394-0.564
		c-0.813,0-1.549,0.111-2.205,0.328c-0.655,0.219-1.219,0.518-1.688,0.894c-0.471,0.375-0.831,0.811-1.08,1.314
		c-0.252,0.499-0.377,1.032-0.377,1.594v0.062c0,0.583,0.091,1.11,0.269,1.579c0.176,0.468,0.501,0.897,0.967,1.281
		c0.471,0.386,1.124,0.735,1.956,1.048c0.835,0.314,1.9,0.605,3.19,0.878c2.544,0.521,4.379,1.256,5.506,2.204
		c1.126,0.95,1.688,2.227,1.688,3.832v0.062C308.439,36.612,308.258,37.419,307.893,38.161z"/>
</g>
<g>
	<path fill="#FFFFFF" d="M81.311,53.07c-0.236,0.18-0.49,0.333-0.761,0.462c-0.273,0.125-0.564,0.228-0.874,0.299
		c-0.312,0.072-0.659,0.106-1.043,0.106c-0.607,0-1.169-0.11-1.679-0.334c-0.512-0.223-0.954-0.529-1.329-0.917
		c-0.375-0.386-0.67-0.843-0.88-1.373c-0.213-0.527-0.319-1.093-0.319-1.698c0-0.601,0.106-1.165,0.319-1.691
		c0.21-0.527,0.505-0.989,0.88-1.383c0.375-0.395,0.822-0.707,1.34-0.935c0.521-0.228,1.086-0.342,1.702-0.342
		c0.384,0,0.729,0.035,1.037,0.098c0.308,0.062,0.594,0.151,0.856,0.269c0.263,0.117,0.508,0.256,0.731,0.421
		c0.224,0.163,0.44,0.345,0.648,0.544l-0.648,0.694c-0.36-0.336-0.746-0.612-1.156-0.826c-0.412-0.215-0.904-0.323-1.479-0.323
		c-0.462,0-0.894,0.087-1.288,0.262c-0.395,0.176-0.74,0.421-1.03,0.733c-0.293,0.31-0.521,0.674-0.685,1.095
		c-0.163,0.419-0.243,0.874-0.243,1.36c0,0.488,0.081,0.943,0.243,1.364c0.165,0.425,0.392,0.793,0.685,1.104
		c0.291,0.312,0.635,0.558,1.03,0.737c0.395,0.18,0.826,0.269,1.288,0.269c0.575,0,1.069-0.106,1.485-0.316
		c0.414-0.212,0.822-0.51,1.223-0.894l0.623,0.611C81.772,52.688,81.545,52.89,81.311,53.07z"/>
	<path fill="#FFFFFF" d="M98.928,51.248c-0.206,0.525-0.497,0.984-0.874,1.383c-0.375,0.401-0.829,0.718-1.355,0.955
		c-0.525,0.234-1.108,0.351-1.748,0.351s-1.219-0.115-1.744-0.347c-0.525-0.229-0.971-0.544-1.349-0.939
		c-0.375-0.396-0.666-0.854-0.868-1.379c-0.204-0.523-0.306-1.076-0.306-1.657c0-0.583,0.104-1.138,0.312-1.661
		c0.206-0.524,0.499-0.984,0.874-1.383c0.375-0.399,0.827-0.718,1.355-0.954c0.527-0.234,1.11-0.354,1.748-0.354
		c0.64,0,1.221,0.117,1.744,0.349c0.525,0.23,0.971,0.544,1.349,0.941c0.375,0.395,0.664,0.854,0.868,1.375
		c0.204,0.525,0.306,1.078,0.306,1.661S99.137,50.725,98.928,51.248z M98.013,48.26c-0.165-0.423-0.395-0.79-0.689-1.102
		c-0.295-0.312-0.644-0.559-1.05-0.744c-0.401-0.184-0.843-0.275-1.323-0.275c-0.479,0-0.922,0.089-1.323,0.269
		c-0.406,0.18-0.75,0.425-1.039,0.737c-0.288,0.312-0.514,0.676-0.676,1.097c-0.163,0.417-0.245,0.868-0.245,1.347
		c0,0.479,0.083,0.931,0.245,1.354s0.395,0.792,0.689,1.104c0.295,0.31,0.644,0.558,1.05,0.744c0.401,0.182,0.843,0.273,1.323,0.273
		c0.479,0,0.919-0.089,1.325-0.269c0.401-0.18,0.748-0.425,1.037-0.737c0.286-0.31,0.512-0.676,0.676-1.095
		c0.163-0.421,0.245-0.868,0.245-1.347C98.258,49.134,98.176,48.683,98.013,48.26z"/>
	<path fill="#FFFFFF" d="M114.72,45.408h1.02l-3.606,8.447h-0.839l-3.606-8.447h1.054l2.984,7.224L114.72,45.408z"/>
	<path fill="#FFFFFF" d="M131.113,46.271h-5.118v2.863h4.578v0.863h-4.578v2.937h5.176v0.861h-6.122v-8.386h6.063V46.271z"/>
	<path fill="#FFFFFF" d="M146.905,45.408h0.922v8.386h-0.755l-5.416-6.877v6.877h-0.924v-8.386h0.885l5.288,6.721V45.408z"/>
	<path fill="#FFFFFF" d="M165.668,53.794h-1.017l-0.982-2.216h-4.565l-0.997,2.216h-0.97l3.823-8.447h0.885L165.668,53.794z
		 M161.392,46.462l-1.917,4.279h3.821L161.392,46.462z"/>
	<path fill="#FFFFFF" d="M181.147,45.408h0.924v8.386h-0.754l-5.418-6.877v6.877h-0.921v-8.386h0.885l5.284,6.721V45.408z"/>
	<path fill="#FFFFFF" d="M195.264,53.794h-0.945v-7.512h-2.815v-0.874h6.575v0.874h-2.814V53.794z"/>
	<path fill="#FFFFFF" d="M225.281,53.07c-0.234,0.18-0.487,0.333-0.759,0.462c-0.271,0.125-0.563,0.228-0.874,0.299
		c-0.312,0.072-0.661,0.106-1.043,0.106c-0.607,0-1.167-0.11-1.679-0.334c-0.51-0.223-0.952-0.529-1.329-0.917
		c-0.375-0.386-0.67-0.843-0.881-1.373c-0.212-0.527-0.316-1.093-0.316-1.698c0-0.601,0.104-1.165,0.316-1.691
		c0.211-0.527,0.506-0.989,0.881-1.383c0.377-0.395,0.821-0.707,1.342-0.935c0.519-0.228,1.087-0.342,1.703-0.342
		c0.384,0,0.727,0.035,1.034,0.098c0.31,0.062,0.594,0.151,0.856,0.269c0.267,0.117,0.508,0.256,0.73,0.421
		c0.226,0.163,0.44,0.345,0.646,0.544l-0.646,0.694c-0.357-0.336-0.743-0.612-1.153-0.826c-0.414-0.215-0.906-0.323-1.481-0.323
		c-0.462,0-0.894,0.087-1.288,0.262c-0.395,0.176-0.737,0.421-1.03,0.733c-0.29,0.31-0.518,0.674-0.683,1.095
		c-0.165,0.419-0.247,0.874-0.247,1.36c0,0.488,0.082,0.943,0.247,1.364c0.165,0.425,0.393,0.793,0.683,1.104
		c0.293,0.312,0.636,0.558,1.03,0.737c0.395,0.18,0.826,0.269,1.288,0.269c0.575,0,1.071-0.106,1.485-0.316
		c0.417-0.212,0.824-0.51,1.224-0.894l0.622,0.611C225.743,52.688,225.518,52.89,225.281,53.07z"/>
	<path fill="#FFFFFF" d="M236.216,50.021v3.773h-0.945v-8.386h0.945v3.726h4.84v-3.726h0.948v8.386h-0.948v-3.773H236.216z"/>
	<path fill="#FFFFFF" d="M258.887,50.211c0,0.616-0.085,1.154-0.252,1.62c-0.169,0.459-0.405,0.848-0.714,1.16
		c-0.306,0.312-0.676,0.546-1.102,0.7c-0.429,0.156-0.906,0.234-1.431,0.234c-0.522,0-0.993-0.078-1.421-0.234
		c-0.427-0.154-0.794-0.386-1.104-0.694c-0.306-0.308-0.545-0.688-0.711-1.145c-0.168-0.456-0.252-0.978-0.252-1.568v-4.877h0.945
		v4.816c0,0.911,0.226,1.609,0.679,2.097c0.449,0.488,1.078,0.731,1.885,0.731c0.776,0,1.393-0.232,1.846-0.696
		c0.455-0.464,0.683-1.153,0.683-2.071v-4.877h0.948V50.211z"/>
	<path fill="#FFFFFF" d="M274.559,53.794l-2.433-3.257h-2.398v3.257h-0.945v-8.386h3.608c0.462,0,0.878,0.059,1.251,0.18
		c0.373,0.119,0.689,0.289,0.952,0.507c0.263,0.221,0.469,0.486,0.611,0.792c0.146,0.31,0.215,0.651,0.215,1.026
		c0,0.352-0.054,0.666-0.167,0.941c-0.11,0.275-0.271,0.514-0.473,0.72c-0.204,0.204-0.447,0.373-0.725,0.51
		c-0.279,0.134-0.583,0.23-0.913,0.286l2.579,3.424H274.559z M273.91,46.72c-0.377-0.292-0.906-0.438-1.587-0.438h-2.596v3.416
		h2.583c0.314,0,0.603-0.041,0.867-0.121c0.263-0.081,0.492-0.195,0.683-0.343c0.193-0.147,0.343-0.33,0.451-0.546
		c0.108-0.215,0.163-0.462,0.163-0.733C274.475,47.425,274.286,47.013,273.91,46.72z"/>
	<path fill="#FFFFFF" d="M291.613,53.07c-0.236,0.18-0.488,0.333-0.759,0.462c-0.271,0.125-0.564,0.228-0.874,0.299
		c-0.314,0.072-0.662,0.106-1.044,0.106c-0.606,0-1.168-0.11-1.678-0.334c-0.512-0.223-0.954-0.529-1.33-0.917
		c-0.375-0.386-0.668-0.843-0.882-1.373c-0.211-0.527-0.317-1.093-0.317-1.698c0-0.601,0.106-1.165,0.317-1.691
		c0.214-0.527,0.507-0.989,0.882-1.383c0.376-0.395,0.822-0.707,1.341-0.935c0.521-0.228,1.086-0.342,1.704-0.342
		c0.382,0,0.727,0.035,1.034,0.098c0.307,0.062,0.595,0.151,0.857,0.269c0.265,0.117,0.507,0.256,0.73,0.421
		c0.224,0.163,0.44,0.345,0.646,0.544l-0.646,0.694c-0.36-0.336-0.744-0.612-1.156-0.826c-0.412-0.215-0.904-0.323-1.48-0.323
		c-0.462,0-0.892,0.087-1.286,0.262c-0.397,0.176-0.739,0.421-1.032,0.733c-0.291,0.31-0.519,0.674-0.684,1.095
		c-0.162,0.419-0.242,0.874-0.242,1.36c0,0.488,0.08,0.943,0.242,1.364c0.165,0.425,0.393,0.793,0.684,1.104
		c0.293,0.312,0.635,0.558,1.032,0.737c0.395,0.18,0.824,0.269,1.286,0.269c0.576,0,1.071-0.106,1.487-0.316
		c0.414-0.212,0.822-0.51,1.223-0.894l0.623,0.611C292.077,52.688,291.85,52.89,291.613,53.07z"/>
	<path fill="#FFFFFF" d="M302.547,50.021v3.773H301.6v-8.386h0.947v3.726h4.841v-3.726h0.947v8.386h-0.947v-3.773H302.547z"/>
</g>
</svg>
